<svg xmlns="http://www.w3.org/2000/svg" xmlns:xlink="http://www.w3.org/1999/xlink" width="605" height="39" viewBox="0 0 605 39"><defs><style>.a,.b,.c{fill:none;}.b{clip-rule:evenodd;}.c{fill-rule:evenodd;}.d{fill:#fff;}.e{clip-path:url(#a);}.f{clip-path:url(#b);}.g{isolation:isolate;}.h{clip-path:url(#c);}.i{clip-path:url(#d);}.j{clip-path:url(#e);}.k{fill:#333;}.l{clip-path:url(#f);}.m{clip-path:url(#h);}.n{clip-path:url(#i);}.o{clip-path:url(#j);}.p{clip-path:url(#l);}.q{clip-path:url(#m);}.r{clip-path:url(#n);}.s{clip-path:url(#q);}.t{clip-path:url(#r);}.u{clip-path:url(#t);}.v{clip-path:url(#u);}.w{clip-path:url(#v);}.x{clip-path:url(#x);}.y{clip-path:url(#y);}.z{clip-path:url(#z);}.aa{clip-path:url(#ab);}.ab{clip-path:url(#ac);}.ac{clip-path:url(#ad);}.ad{clip-path:url(#af);}.ae{clip-path:url(#ag);}.af{clip-path:url(#ah);}.ag{clip-path:url(#aj);}.ah{clip-path:url(#ak);}.ai{clip-path:url(#al);}.aj{clip-path:url(#an);}.ak{clip-path:url(#ao);}.al{clip-path:url(#ap);}.am{clip-path:url(#aq);}.an{clip-path:url(#as);}.ao{clip-path:url(#at);}.ap{clip-path:url(#au);}.aq{clip-path:url(#av);}.ar{fill:#c4c4c4;}.as{clip-path:url(#aw);}.at{clip-path:url(#ax);}.au{clip-path:url(#ay);}.av{clip-path:url(#az);}.aw{fill:rgba(0,0,0,0.87);font-size:12px;font-family:SegoeUI-Light, Segoe UI;font-weight:300;letter-spacing:0.05em;}.ax,.ay{fill:#efefef;}.ay{opacity:0;}</style><clipPath id="a"><path class="a" d="M415.6-26.505c.56,0,.551-.028.551.513v11.984c0,.551.009.523-.551.523H399.371c-.56,0-.551.028-.551-.523V-25.992c0-.541-.009-.513.56-.513Zm-2.716,11.172v-9.333h-10.8v9.333Zm-12.852-9.8v.933h.933v-.933Zm0,1.867v.933h.933v-.933Zm0,1.867v.933h.933V-21.4Zm0,1.867v.933h.933v-.933Zm0,1.867v.933h.933v-.933Zm0,1.867v.933h.933V-15.8Zm14-9.333v.933h.933v-.933Zm0,1.867v.933h.933v-.933Zm0,1.867v.933h.933V-21.4Zm0,1.867v.933h.933v-.933Zm0,1.867v.933h.933v-.933Zm0,1.867v.933h.933V-15.8Zm-8.867-6.835a.373.373,0,0,1,.183-.322.373.373,0,0,1,.37-.006l4.791,2.636A.373.373,0,0,1,410.7-20a.373.373,0,0,1-.193.327l-4.791,2.636a.373.373,0,0,1-.37-.005.373.373,0,0,1-.184-.321v-5.271Z" transform="translate(-398.82 26.506)"/></clipPath><clipPath id="b"><path class="a" d="M-60,593H930V-99H-60Z" transform="translate(60 99)"/></clipPath><clipPath id="c"><rect class="a" width="29" height="24"/></clipPath><clipPath id="d"><path class="a" d="M398-13h19V-27H398Z" transform="translate(-398 27)"/></clipPath><clipPath id="e"><path class="a" d="M398.167-13h18.667V-27H398.167Z" transform="translate(-398.167 27)"/></clipPath><clipPath id="f"><path class="b" d="M421.941-20.81a.75.75,0,0,1-.215-.734.75.75,0,0,1,.541-.541.75.75,0,0,1,.734.215l3.006,3.005,3.005-3.005a.75.75,0,0,1,.734-.215.75.75,0,0,1,.541.541.75.75,0,0,1-.215.734l-3.549,3.55a.75.75,0,0,1-.617.214.75.75,0,0,1-.551-.35Z" transform="translate(-421.702 22.109)"/></clipPath><clipPath id="h"><rect class="a" width="21" height="21"/></clipPath><clipPath id="i"><path class="a" d="M421-17h10v-6H421Z" transform="translate(-421 23)"/></clipPath><clipPath id="j"><path class="b" d="M357.687-24.368v2.8h3.733v-2.8Zm0,3.733v2.8h3.733v-2.8Zm0,3.733v2.8h3.733v-2.8Zm4.667,2.8h3.733v-2.8h-3.733Zm4.667,0h3.733v-2.8H367.02Zm3.733-3.733v-2.8H367.02v2.8Zm0-3.733v-2.8H367.02v2.8Zm1.4,7.467a1.4,1.4,0,0,1-1.4,1.4H357.687a1.4,1.4,0,0,1-1.4-1.4V-26.235a1.937,1.937,0,0,1,1.867-1.4h12.133a1.937,1.937,0,0,1,1.867,1.4Zm-6.067-3.733v-2.8h-3.733v2.8Zm0-3.733v-2.8h-3.733v2.8Z" transform="translate(-356.287 27.635)"/></clipPath><clipPath id="l"><rect class="a" width="27" height="26"/></clipPath><clipPath id="m"><path class="a" d="M356-12h17V-28H356Z" transform="translate(-356 28)"/></clipPath><clipPath id="n"><path class="b" d="M377.774-20.81a.75.75,0,0,1-.215-.734.75.75,0,0,1,.541-.541.75.75,0,0,1,.734.215l3.006,3.005,3.005-3.005a.75.75,0,0,1,.734-.215.75.75,0,0,1,.541.541.75.75,0,0,1-.215.734l-3.549,3.55a.75.75,0,0,1-.617.214.75.75,0,0,1-.551-.35Z" transform="translate(-377.536 22.109)"/></clipPath><clipPath id="q"><path class="a" d="M377-17h10v-6H377Z" transform="translate(-377 23)"/></clipPath><clipPath id="r"><path class="b" d="M326.576-19.5a6.067,6.067,0,0,1,5.652-5.981l.035.625c-2.47.689-3.491,2.779-3.616,4.961h3.528c.515,0,.467.4.467.92v4.21c0,.517-.418.469-.933.469h-4.667c-.515,0-.467-.419-.467-.936V-19.5Zm7.467,0a6.067,6.067,0,0,1,5.652-5.981l.035.625c-2.47.69-3.491,2.78-3.615,4.961h3.527c.515,0,.467.4.467.92v4.21c0,.517-.418.469-.933.469h-4.667c-.515,0-.467-.419-.467-.936V-19.5Z" transform="translate(-326.575 25.482)"/></clipPath><clipPath id="t"><rect class="a" width="25" height="22"/></clipPath><clipPath id="u"><path class="a" d="M326-14h15V-26H326Z" transform="translate(-326 26)"/></clipPath><clipPath id="v"><path class="a" d="M299.429-19.524a.6.6,0,0,1,.821.028l3.136,2.931,2.081-1.923a.6.6,0,0,1,.812,0l2.352,2.772v-9.445H295.967v9.445Zm9.585-7.009a1,1,0,0,1,1.017.98V-14.5a1,1,0,0,1-1.017.989H295.584a1,1,0,0,1-1.017-.989V-25.553a1,1,0,0,1,1.027-.98Zm-4.872,5.189a1.831,1.831,0,0,1,0-1.831,1.831,1.831,0,0,1,1.587-.915,1.832,1.832,0,0,1,1.586.917,1.831,1.831,0,0,1-.672,2.5,1.831,1.831,0,0,1-2.5-.672Z" transform="translate(-294.567 26.533)"/></clipPath><clipPath id="x"><rect class="a" width="27" height="24"/></clipPath><clipPath id="y"><path class="a" d="M294-13h17V-27H294Z" transform="translate(-294 27)"/></clipPath><clipPath id="z"><path class="b" d="M269.633-23.967a.7.7,0,0,0,.7.7H279.2a.7.7,0,0,0,.7-.7.7.7,0,0,0-.7-.7h-8.867A.7.7,0,0,0,269.633-23.967Zm-3.267-2.567v4.667h-1.4V-25.88h-.933v-.933h2.333ZM263.42-12.667l2.417-3.04h-.012a.56.56,0,0,0-.125-.709.56.56,0,0,0-.72,0,.56.56,0,0,0-.125.709h-1.473a1.866,1.866,0,0,1,.9-1.694,1.866,1.866,0,0,1,1.92,0,1.866,1.866,0,0,1,.9,1.694h0a2.047,2.047,0,0,1-.311.922,9.989,9.989,0,0,1-1.161,1.225h1.476v.933H263.38Zm6.213-2.9a.7.7,0,0,1,.7-.7H279.2a.7.7,0,0,1,.7.7.7.7,0,0,1-.7.7h-8.867a.7.7,0,0,1-.7-.7Z" transform="translate(-263.38 26.813)"/></clipPath><clipPath id="ab"><rect class="a" width="27" height="25"/></clipPath><clipPath id="ac"><path class="a" d="M263-12h17V-27H263Z" transform="translate(-263 27)"/></clipPath><clipPath id="ad"><path class="b" d="M238.167-24.433a.7.7,0,0,0,.7.7h8.867a.7.7,0,0,0,.7-.7.7.7,0,0,0-.7-.7h-8.867A.7.7,0,0,0,238.167-24.433Zm-5.6,0a1.63,1.63,0,0,1,1.633-1.633,1.63,1.63,0,0,1,1.633,1.633A1.63,1.63,0,0,1,234.2-22.8,1.63,1.63,0,0,1,232.567-24.433Zm5.6,8.4a.7.7,0,0,0,.7.7h8.867a.7.7,0,0,0,.7-.7.7.7,0,0,0-.7-.7h-8.867a.7.7,0,0,0-.7.7Zm-5.6,0a1.63,1.63,0,0,1,1.633-1.633,1.63,1.63,0,0,1,1.633,1.633A1.63,1.63,0,0,1,234.2-14.4,1.63,1.63,0,0,1,232.567-16.033Z" transform="translate(-232.567 26.067)"/></clipPath><clipPath id="af"><rect class="a" width="27" height="23"/></clipPath><clipPath id="ag"><path class="a" d="M232-14h17V-27H232Z" transform="translate(-232 27)"/></clipPath><clipPath id="ah"><path class="b" d="M210.505-15.333l.925-1.322a.7.7,0,0,1,.634-.3.7.7,0,0,1,.574.4.7.7,0,0,1-.061.7l-1.071,1.531a.7.7,0,0,1-.2.192,4.9,4.9,0,0,1-6.354.627,4.9,4.9,0,0,1-1.582-6.185.691.691,0,0,1,.112-.256l1.071-1.53a.7.7,0,0,1,.64-.315.7.7,0,0,1,.584.409.7.7,0,0,1-.078.709l-.925,1.323.006,0a3.5,3.5,0,0,0,.977,4.7,3.5,3.5,0,0,0,4.747-.688l.006,0Zm5.128-4.979a.7.7,0,0,1-.112.256l-1.071,1.53a.7.7,0,0,1-.64.315.7.7,0,0,1-.584-.409.7.7,0,0,1,.078-.709l.8-1.148a3.5,3.5,0,0,0-.874-4.855,3.5,3.5,0,0,0-4.861.84l-.8,1.147a.7.7,0,0,1-.975.172.7.7,0,0,1-.172-.975l1.071-1.531a.7.7,0,0,1,.2-.192,4.9,4.9,0,0,1,6.354-.627,4.9,4.9,0,0,1,1.582,6.185Zm-4.259-2.363a.7.7,0,0,1,.288.452.7.7,0,0,1-.116.523L208.6-17.5a.7.7,0,0,1-.634.3.7.7,0,0,1-.574-.4.7.7,0,0,1,.061-.7L210.4-22.5a.7.7,0,0,1,.452-.288.7.7,0,0,1,.523.116Z" transform="translate(-202.859 27.385)"/></clipPath><clipPath id="aj"><rect class="a" width="25" height="26"/></clipPath><clipPath id="ak"><path class="a" d="M202-12h15V-28H202Z" transform="translate(-202 28)"/></clipPath><clipPath id="al"><path class="b" d="M178.114-15.676l.02,0a1.1,1.1,0,0,0,.367.9.977.977,0,0,0,.256.188h1.376a.56.56,0,0,1,.56.56.56.56,0,0,1-.56.56h-6.014a.56.56,0,0,1-.56-.56.56.56,0,0,1,.56-.56h1.073a2.079,2.079,0,0,0,.938-.312,1.318,1.318,0,0,0,.377-.557l2.255-8.913a.983.983,0,0,0-.262-.768,1.045,1.045,0,0,0-.412-.276h-1.312a.56.56,0,0,1-.56-.56.56.56,0,0,1,.56-.56h6.014a.56.56,0,0,1,.56.56.56.56,0,0,1-.56.56h-1.115a1.6,1.6,0,0,0-.768.276,2.605,2.605,0,0,0-.581.737Z" transform="translate(-173.557 26.533)"/></clipPath><clipPath id="an"><rect class="a" width="21" height="24"/></clipPath><clipPath id="ao"><path class="a" d="M173-13h11V-27H173Z" transform="translate(-173 27)"/></clipPath><clipPath id="ap"><path class="b" d="M135.5-34h24a2.037,2.037,0,0,1,2,2.071V-7.071A2.037,2.037,0,0,1,159.5-5h-24a2.037,2.037,0,0,1-2-2.071V-31.929A2.037,2.037,0,0,1,135.5-34Z" transform="translate(-133.5 34)"/></clipPath><clipPath id="aq"><path class="b" d="M147.674-13.467h-4.12a1.737,1.737,0,0,1-1.273-.387,1.706,1.706,0,0,1-.382-1.235v-9.822a1.676,1.676,0,0,1,.391-1.243,1.771,1.771,0,0,1,1.264-.379h4.368a10.476,10.476,0,0,1,1.673.116,3.631,3.631,0,0,1,1.269.446,3.281,3.281,0,0,1,.846.7,3.044,3.044,0,0,1,.754,2.018,3.005,3.005,0,0,1-2.023,2.87q2.656.82,2.657,3.193a3.506,3.506,0,0,1-2.143,3.27,5.694,5.694,0,0,1-1.416.352,14.911,14.911,0,0,1-1.867.1Zm-.2-5.8H144.7v3.815h2.864q2.768,0,2.767-1.934a1.56,1.56,0,0,0-.717-1.435,4.114,4.114,0,0,0-2.143-.446ZM144.7-24.546v3.378h2.432a5.2,5.2,0,0,0,1.577-.187,1.493,1.493,0,0,0,.849-.714,1.56,1.56,0,0,0,.231-.837,1.3,1.3,0,0,0-.726-1.315,5.718,5.718,0,0,0-2.217-.325Z" transform="translate(-141.9 26.534)"/></clipPath><clipPath id="as"><rect class="a" width="23" height="24"/></clipPath><clipPath id="at"><path class="a" d="M141-13h13V-27H141Z" transform="translate(-141 27)"/></clipPath><clipPath id="au"><path class="a" d="M129.339-39.005v39" transform="translate(-129.339 39.005)"/></clipPath><clipPath id="av"><path class="a" d="M-60,611.211H930V-99H-60Z" transform="translate(60 99)"/></clipPath><clipPath id="aw"><path class="b" d="M113.283-20.128a.77.77,0,0,1-.2-.724.72.72,0,0,1,.5-.534.671.671,0,0,1,.682.212l2.794,2.965,2.793-2.965a.671.671,0,0,1,.682-.212.72.72,0,0,1,.5.534.77.77,0,0,1-.2.724l-3.3,3.5a.673.673,0,0,1-.573.212.694.694,0,0,1-.512-.346Z" transform="translate(-113.061 21.41)"/></clipPath><clipPath id="ax"><path class="a" d="M-60,619.617H908.448V-99H-60Z" transform="translate(60 99)"/></clipPath><clipPath id="ay"><rect class="a" width="19.565" height="20.769"/></clipPath><clipPath id="az"><path class="a" d="M113-15.769h8.8V-22H113Z" transform="translate(-113 22)"/></clipPath></defs><rect class="d" width="576" height="39"/><g transform="translate(230 0)"><g class="e" transform="translate(269.32 13)"><g class="f" transform="translate(-458.82 -72.494)"><g class="g" transform="translate(453 67)"><g class="h"><g class="i" transform="translate(5 5)"><path d="M393.82-31.506h27.332v23.02H393.82Z" transform="translate(-398 27)"/></g><g class="j" transform="translate(5.167 5)"><path class="k" d="M393.167-34.333h28.667V-5.667H393.167Z" transform="translate(-398.167 27)"/></g></g></g></g></g><g class="l" transform="translate(292.202 17.409)"><g class="f" transform="translate(-481.702 -76.891)"><g class="g" transform="translate(476 69)"><g class="m"><g class="n" transform="translate(5 7)"><path class="k" d="M416.7-27.109h18.608v15.068H416.7Z" transform="translate(-421 23)"/><path class="k" d="M411-34.333h30v30H411Z" transform="translate(-421 23)"/></g></g></g></g></g><g class="o" transform="translate(226.787 11.864)"><g class="f" transform="translate(-416.287 -71.365)"><g class="g" transform="translate(411 66)"><g class="p"><g class="q" transform="translate(5 5)"><path d="M351.287-32.635h25.867V-7.7H351.287Z" transform="translate(-356 28)"/><path class="k" d="M350.167-34.333h28.667V-5.667H350.167Z" transform="translate(-356 28)"/></g></g></g></g></g><g class="r" transform="translate(248.036 17.409)"><g class="f" transform="translate(-437.536 -76.891)"><g class="g" transform="translate(431 69)"><g class="m"><g class="s" transform="translate(6 7)"><path class="k" d="M372.536-27.109h18.608v15.068H372.536Z" transform="translate(-377 23)"/><path class="k" d="M366.833-34.333h30v30h-30Z" transform="translate(-377 23)"/></g></g></g></g></g><g class="t" transform="translate(197.075 14.027)"><g class="f" transform="translate(-386.575 -73.518)"><g class="g" transform="translate(381 68)"><g class="u"><g class="v" transform="translate(5 5)"><path d="M321.575-30.482h23.536V-9.3H321.575Z" transform="translate(-326 26)"/><path class="k" d="M319.167-34.333h28.667V-5.667H319.167Z" transform="translate(-326 26)"/></g></g></g></g></g><g class="w" transform="translate(165.067 12.971)"><g class="f" transform="translate(-354.567 -72.467)"><g class="g" transform="translate(349 67)"><g class="x"><g class="y" transform="translate(5 5)"><path d="M289.567-31.533h25.465v23.02H289.567Z" transform="translate(-294 27)"/><path class="k" d="M288.167-34.333h28.667V-5.667H288.167Z" transform="translate(-294 27)"/></g></g></g></g></g><g class="z" transform="translate(133.88 12.704)"><g class="f" transform="translate(-323.38 -72.187)"><g class="g" transform="translate(318 67)"><g class="aa"><g class="ab" transform="translate(5 5)"><path d="M258.379-31.813H284.9V-7.627H258.379Z" transform="translate(-263 27)"/><path class="k" d="M257.167-34.333h28.667V-5.667H257.167Z" transform="translate(-263 27)"/></g></g></g></g></g><g class="ac" transform="translate(103.067 13.43)"><g class="f" transform="translate(-292.567 -72.933)"><g class="g" transform="translate(287 67)"><g class="ad"><g class="ae" transform="translate(5 5)"><path d="M227.567-31.067h25.867V-9.4H227.567Z" transform="translate(-232 27)"/><path class="k" d="M226.167-34.333h28.667V-5.667H226.167Z" transform="translate(-232 27)"/></g></g></g></g></g><g class="af" transform="translate(73.359 12.121)"><g class="f" transform="translate(-262.859 -71.615)"><g class="g" transform="translate(257 66)"><g class="ag"><g class="ah" transform="translate(5 5)"><path d="M197.859-32.385h23.281v24.77H197.859Z" transform="translate(-202 28)"/><path class="k" d="M195.167-34.333h28.667V-5.667H195.167Z" transform="translate(-202 28)"/></g></g></g></g></g><g class="ai" transform="translate(44.057 12.972)"><g class="f" transform="translate(-233.557 -72.467)"><g class="g" transform="translate(228 67)"><g class="aj"><g class="ak" transform="translate(5 5)"><path class="k" d="M168.557-31.533h19.79V-8.467h-19.79Z" transform="translate(-173 27)"/><path class="k" d="M164.167-34.333h28.667V-5.667H164.167Z" transform="translate(-173 27)"/></g></g></g></g></g><g class="am" transform="translate(12.4 12.972)"><g class="f" transform="translate(-201.9 -72.466)"><g class="g" transform="translate(196 67)"><g class="an"><g class="ao" transform="translate(5 5)"><path d="M136.9-31.534h21.2V-8.466H136.9Z" transform="translate(-141 27)"/><path class="k" d="M133.167-34.333h28.667V-5.667H133.167Z" transform="translate(-141 27)"/></g></g></g></g></g><g class="ap"><g class="aq" transform="translate(-189.339 -61.573)"><path class="ar" d="M124.427-44.092l10.662.191-.838,49.25L123.59,5.158Z" transform="translate(60 100.445)"/></g></g></g><g transform="translate(0 7)"><g class="as" transform="translate(123 10.526)"><g class="at" transform="translate(-169.293 -80.575)"><g class="g" transform="translate(163.364 72.692)"><g class="au" transform="translate(0 0)"><g class="av" transform="translate(5.869 7.269)"><path class="k" d="M108.061-26.41h17.782v15.385H108.061Z" transform="translate(-112.892 21.83)"/><path class="k" d="M102.644-33.273h28.369V-3.157H102.644Z" transform="translate(-112.775 21.566)"/></g></g></g></g></g><text class="aw" transform="translate(0 16)"><tspan x="0" y="0">SF Pro Display</tspan></text><rect class="ax" width="1" height="25" transform="translate(144 0)"/></g><rect class="ax" width="605" height="1" transform="translate(0 38)"/><g transform="translate(146 7)"><rect class="ay" width="69" height="25"/><g class="as" transform="translate(47 10.526)"><g class="at" transform="translate(-169.293 -80.575)"><g class="g" transform="translate(163.364 72.692)"><g class="au" transform="translate(0 0)"><g class="av" transform="translate(5.869 7.269)"><path class="k" d="M108.061-26.41h17.782v15.385H108.061Z" transform="translate(-112.892 21.83)"/><path class="k" d="M102.644-33.273h28.369V-3.157H102.644Z" transform="translate(-112.775 21.566)"/></g></g></g></g></g><text class="aw" transform="translate(14 17)"><tspan x="0" y="0">16</tspan></text><rect class="ax" width="1" height="25" transform="translate(68)"/></g></svg>